<?xml version="1.0" standalone="no"?><!DOCTYPE svg PUBLIC "-//W3C//DTD SVG 1.1//EN" "http://www.w3.org/Graphics/SVG/1.1/DTD/svg11.dtd"><svg t="1661480810779" class="icon" viewBox="0 0 1024 1024" version="1.1" xmlns="http://www.w3.org/2000/svg" p-id="2346" xmlns:xlink="http://www.w3.org/1999/xlink" width="20" height="20"><defs><style type="text/css">@font-face { font-family: feedback-iconfont; src: url("//at.alicdn.com/t/font_1031158_u69w8yhxdu.woff2?t=1630033759944") format("woff2"), url("//at.alicdn.com/t/font_1031158_u69w8yhxdu.woff?t=1630033759944") format("woff"), url("//at.alicdn.com/t/font_1031158_u69w8yhxdu.ttf?t=1630033759944") format("truetype"); }
</style></defs><path d="M472 991.6c-157 0-304.4-77.2-394.3-206.6-6.9-9.9-7.6-22.9-1.8-33.6 5.8-10.7 17.1-17.8 29.2-16.7l7.7 0.4c2.4 0.2 4.8 0.3 7.2 0.3 229.4 0 416-186.6 416-416 0-85-25.7-167-74.3-236.9-6.9-9.9-7.6-22.9-1.8-33.6 5.8-10.7 17.2-17.6 29.2-16.7C748.7 41.6 952 252.1 952 511.6c0 264.7-215.3 480-480 480zM169.7 797.1c78.1 82.7 187.2 130.6 302.3 130.6 229.4 0 416-186.6 416-416 0-204-144.9-373-339.7-408.6 34 66.9 51.7 140.7 51.7 216.6 0 247.8-188.9 452.4-430.3 477.4z" fill="#5468ff" p-id="2347"></path></svg>