<?xml version="1.0" standalone="no"?><!DOCTYPE svg PUBLIC "-//W3C//DTD SVG 1.1//EN" "http://www.w3.org/Graphics/SVG/1.1/DTD/svg11.dtd"><svg t="1661480968899" class="icon" viewBox="0 0 1024 1024" version="1.1" xmlns="http://www.w3.org/2000/svg" p-id="3639" xmlns:xlink="http://www.w3.org/1999/xlink" width="20" height="20"><defs><style type="text/css">@font-face { font-family: feedback-iconfont; src: url("//at.alicdn.com/t/font_1031158_u69w8yhxdu.woff2?t=1630033759944") format("woff2"), url("//at.alicdn.com/t/font_1031158_u69w8yhxdu.woff?t=1630033759944") format("woff"), url("//at.alicdn.com/t/font_1031158_u69w8yhxdu.ttf?t=1630033759944") format("truetype"); }
</style></defs><path d="M512 833.5c-177.3 0-321.5-144.2-321.5-321.5S334.7 190.5 512 190.5 833.5 334.7 833.5 512 689.3 833.5 512 833.5z m0-571.5c-137.9 0-250 112.2-250 250s112.2 250.1 250 250.1c137.9 0 250-112.2 250-250.1S649.9 262 512 262zM512 142.9c-19.7 0-35.7-16-35.7-35.7V35.7C476.3 16 492.3 0 512 0c19.7 0 35.7 16 35.7 35.7v71.4c0 19.8-16 35.8-35.7 35.8zM512 1024c-19.7 0-35.7-16-35.7-35.7V893c0-19.7 16-35.7 35.7-35.7 19.7 0 35.7 16 35.7 35.7v95.3c0 19.7-16 35.7-35.7 35.7zM227 262.8c-9.1 0-18.3-3.5-25.3-10.5L150 200.5c-14-13.9-14-36.6 0-50.5 14-14 36.6-14 50.5 0l51.8 51.8c14 13.9 14 36.6 0 50.5-7 7-16.1 10.5-25.3 10.5zM848.8 884.5c-9.1 0-18.3-3.5-25.3-10.5l-51.8-51.8c-14-13.9-14-36.6 0-50.5 14-14 36.6-14 50.5 0l51.8 51.8c14 13.9 14 36.6 0 50.5-6.9 7-16.1 10.5-25.2 10.5zM107.2 547.7H35.7C16 547.7 0 531.7 0 512s16-35.7 35.7-35.7h71.4c19.7 0 35.7 16 35.7 35.7s-15.9 35.7-35.6 35.7zM988.3 547.7h-71.4c-19.7 0-35.7-16-35.7-35.7s16-35.7 35.7-35.7h71.4c19.7 0 35.7 16 35.7 35.7s-16 35.7-35.7 35.7zM175.2 884.5c-9.1 0-18.3-3.5-25.3-10.5-14-14-14-36.6 0-50.5l51.8-51.8c14-14 36.6-14 50.5 0 14 14 14 36.6 0 50.5L200.5 874c-7 7-16.1 10.5-25.3 10.5zM797 262.8c-9.1 0-18.3-3.5-25.3-10.5-14-14-14-36.6 0-50.5l51.8-51.8c14-14 36.6-14 50.5 0 14 14 14 36.6 0 50.5l-51.8 51.8c-7 7-16.1 10.5-25.2 10.5z" fill="#5468ff" p-id="3640"></path></svg>